{
  "asset": {
    "version": "2.0",
    "generator": "THREE.GLTFExporter"
  },
  "scenes": [
    {
      "name": "Scene",
      "nodes": [
        2
      ]
    }
  ],
  "scene": 0,
  "nodes": [
    {
      "matrix": [
        1.0606480836868215,
        -1.4901161975038337e-8,
        -1.2251621167257175e-7,
        0,
        1.4901159386449453e-8,
        1.0606480836868282,
        -2.2409948073568944e-8,
        0,
        1.22516198217462e-7,
        2.240994383360697e-8,
        1.0606479644775317,
        0,
        1.177602767944336,
        0.23309707641601607,
        5.297896385192872,
        1
      ],
      "name": "glasses_mirror",
      "extras": {
        "originalName": "glasses_mirror",
        "transformData": {
          "inheritType": 1,
          "eulerOrder": "ZYX",
          "translation": [
            1.177602767944336,
            0.23309707641601562,
            5.297896385192871
          ],
          "rotation": [
            -0.0000012105763108604058,
            0.000006618276088695948,
            -8.04954727223749e-7
          ],
          "scale": [
            1.0606480836868286,
            1.0606480836868286,
            1.060647964477539
          ],
          "parentMatrix": {
            "elements": [
              2.855244115299173,
              -0.7826723123226185,
              0.004463245844627441,
              0,
              0.7826851012417118,
              2.8551979107180627,
              -0.016283784234563354,
              0,
              3.104021435864734e-8,
              0.001095121553310889,
              0.1920200501718778,
              0,
              0.3777393400669098,
              3.7813775539398193,
              -0.5852833390235901,
              1
            ]
          },
          "parentMatrixWorld": {
            "elements": [
              2.855244115299173,
              -0.7826723123226185,
              0.004463245844627441,
              0,
              0.7826851012417118,
              2.8551979107180627,
              -0.016283784234563354,
              0,
              3.104021435864734e-8,
              0.001095121553310889,
              0.1920200501718778,
              0,
              0.3777393400669098,
              3.7813775539398193,
              -0.5852833390235901,
              1
            ]
          }
        }
      },
      "mesh": 1
    },
    {
      "matrix": [
        2.855244115299173,
        -0.7826723123226185,
        0.004463245844627441,
        0,
        0.7826851012417118,
        2.8551979107180627,
        -0.016283784234563354,
        0,
        3.104021435864734e-8,
        0.001095121553310889,
        0.1920200501718778,
        0,
        0.3777393400669098,
        3.7813775539398193,
        -0.5852833390235901,
        1
      ],
      "name": "glasses_base",
      "extras": {
        "originalName": "glasses._base",
        "transformData": {
          "inheritType": 1,
          "eulerOrder": "ZYX",
          "translation": [
            0.3777393400669098,
            3.7813775539398193,
            -0.5852833390235901
          ],
          "rotation": [
            -0.3151405527144513,
            -0.08637683341012249,
            -15.329230903333276
          ],
          "scale": [
            2.9605767726898193,
            2.9605770111083984,
            0.1920231729745865
          ],
          "parentMatrix": {
            "elements": [
              1,
              0,
              0,
              0,
              0,
              1,
              0,
              0,
              0,
              0,
              1,
              0,
              0,
              0,
              0,
              1
            ]
          },
          "parentMatrixWorld": {
            "elements": [
              1,
              0,
              0,
              0,
              0,
              1,
              0,
              0,
              0,
              0,
              1,
              0,
              0,
              0,
              0,
              1
            ]
          }
        }
      },
      "mesh": 0,
      "children": [
        0
      ]
    },
    {
      "extras": {
        "unitScaleFactor": 1
      },
      "children": [
        1
      ]
    }
  ],
  "bufferViews": [
    {
      "buffer": 0,
      "byteOffset": 0,
      "byteLength": 52848,
      "target": 34962,
      "byteStride": 12
    },
    {
      "buffer": 0,
      "byteOffset": 52848,
      "byteLength": 52848,
      "target": 34962,
      "byteStride": 12
    },
    {
      "buffer": 0,
      "byteOffset": 105696,
      "byteLength": 35232,
      "target": 34962,
      "byteStride": 8
    },
    {
      "buffer": 0,
      "byteOffset": 140928,
      "byteLength": 38880,
      "target": 34962,
      "byteStride": 12
    },
    {
      "buffer": 0,
      "byteOffset": 179808,
      "byteLength": 38880,
      "target": 34962,
      "byteStride": 12
    },
    {
      "buffer": 0,
      "byteOffset": 218688,
      "byteLength": 25920,
      "target": 34962,
      "byteStride": 8
    }
  ],
  "buffers": [
    {
      "byteLength": 244608,
      "uri": "data:application/octet-stream;base64,"
    }
  ],
  "accessors": [
    {
      "bufferView": 0,
      "componentType": 5126,
      "count": 4404,
      "max": [
        2.7705721855163574,
        1.4441020488739014,
        6.297893524169922
      ],
      "min": [
        -3.1652987003326416,
        -1.465977668762207,
        -42.915279388427734
      ],
      "type": "VEC3"
    },
    {
      "bufferView": 1,
      "componentType": 5126,
      "count": 4404,
      "max": [
        1,
        1,
        1
      ],
      "min": [
        -1,
        -1,
        -1
      ],
      "type": "VEC3"
    },
    {
      "bufferView": 2,
      "componentType": 5126,
      "count": 4404,
      "max": [
        0.9756335616111755,
        0.9438818097114563
      ],
      "min": [
        0.0011260434985160828,
        0.001127384603023529
      ],
      "type": "VEC2"
    },
    {
      "bufferView": 3,
      "componentType": 5126,
      "count": 3240,
      "max": [
        0.7992594242095947,
        0.7992594242095947,
        0.4390248656272888
      ],
      "min": [
        -3.2075304985046387,
        -1.4585750102996826,
        -0.4390248656272888
      ],
      "type": "VEC3"
    },
    {
      "bufferView": 4,
      "componentType": 5126,
      "count": 3240,
      "max": [
        1,
        1,
        1
      ],
      "min": [
        -1,
        -1,
        -1
      ],
      "type": "VEC3"
    },
    {
      "bufferView": 5,
      "componentType": 5126,
      "count": 3240,
      "max": [
        0.9988690614700317,
        0.858496367931366
      ],
      "min": [
        0.0011240094900131226,
        0.0011304542422294617
      ],
      "type": "VEC2"
    }
  ],
  "materials": [
    {
      "pbrMetallicRoughness": {
        "baseColorFactor": [
          0.2506025864319931,
          0.011930632409186825,
          0.016699239314314017,
          1
        ],
        "metallicFactor": 0.5,
        "roughnessFactor": 0.5
      },
      "name": "glasses_base.001"
    },
    {
      "pbrMetallicRoughness": {
        "baseColorFactor": [
          0.6038273590529664,
          0.6038273590529664,
          0.6038273590529664,
          0.07200002670288086
        ],
        "metallicFactor": 0.5,
        "roughnessFactor": 0.5
      },
      "alphaMode": "BLEND",
      "name": "glasses_mirror.001"
    }
  ],
  "meshes": [
    {
      "primitives": [
        {
          "mode": 4,
          "attributes": {
            "POSITION": 0,
            "NORMAL": 1,
            "TEXCOORD_0": 2
          },
          "material": 0
        }
      ]
    },
    {
      "primitives": [
        {
          "mode": 4,
          "attributes": {
            "POSITION": 3,
            "NORMAL": 4,
            "TEXCOORD_0": 5
          },
          "material": 1
        }
      ]
    }
  ]
}