{
  "asset": {
    "version": "2.0",
    "generator": "THREE.GLTFExporter"
  },
  "scenes": [
    {
      "name": "Scene",
      "nodes": [
        2
      ]
    }
  ],
  "scene": 0,
  "nodes": [
    {
      "matrix": [
        1.0606480836868286,
        0,
        0,
        0,
        0,
        1.06064772605896,
        0,
        0,
        0,
        0,
        1.060647964477539,
        0,
        1.1776025295257568,
        5.297895431518555,
        -0.2330971360206604,
        1
      ],
      "name": "glasses_mirror",
      "extras": {
        "name": "glasses_mirror"
      },
      "mesh": 1
    },
    {
      "matrix": [
        0.028552442377560217,
        -0.00782672189848263,
        0.000044632427390002684,
        0,
        3.043941432402483e-10,
        0.0000109512546145044,
        0.0019202004392743436,
        0,
        -0.007826849649637108,
        -0.028551978794254838,
        0.00016283843937434472,
        0,
        0.0037773933727294207,
        0.03781377524137497,
        -0.005852833390235901,
        1
      ],
      "name": "glasses_base",
      "extras": {
        "name": "glasses._base"
      },
      "mesh": 0,
      "children": [
        0
      ]
    },
    {
      "name": "glasses.glb",
      "children": [
        1
      ]
    }
  ],
  "bufferViews": [
    {
      "buffer": 0,
      "byteOffset": 0,
      "byteLength": 14448,
      "target": 34962,
      "byteStride": 12
    },
    {
      "buffer": 0,
      "byteOffset": 14448,
      "byteLength": 14448,
      "target": 34962,
      "byteStride": 12
    },
    {
      "buffer": 0,
      "byteOffset": 28896,
      "byteLength": 9632,
      "target": 34962,
      "byteStride": 8
    },
    {
      "buffer": 0,
      "byteOffset": 38528,
      "byteLength": 8808,
      "target": 34963
    },
    {
      "buffer": 0,
      "byteOffset": 47336,
      "byteLength": 8256,
      "target": 34962,
      "byteStride": 12
    },
    {
      "buffer": 0,
      "byteOffset": 55592,
      "byteLength": 8256,
      "target": 34962,
      "byteStride": 12
    },
    {
      "buffer": 0,
      "byteOffset": 63848,
      "byteLength": 5504,
      "target": 34962,
      "byteStride": 8
    },
    {
      "buffer": 0,
      "byteOffset": 69352,
      "byteLength": 5712,
      "target": 34963
    }
  ],
  "buffers": [
    {
      "byteLength": 75064,
      "uri": "data:application/octet-stream;base64,"
    }
  ],
  "accessors": [
    {
      "bufferView": 0,
      "componentType": 5126,
      "count": 1204,
      "max": [
        2.7705721855163574,
        6.297893524169922,
        1.465977668762207
      ],
      "min": [
        -3.1652987003326416,
        -42.915279388427734,
        -1.4441020488739014
      ],
      "type": "VEC3"
    },
    {
      "bufferView": 1,
      "componentType": 5126,
      "count": 1204,
      "max": [
        1,
        1,
        1
      ],
      "min": [
        -1,
        -1,
        -1
      ],
      "type": "VEC3"
    },
    {
      "bufferView": 2,
      "componentType": 5126,
      "count": 1204,
      "max": [
        0.9756335616111755,
        0.9988726377487183
      ],
      "min": [
        0.0011260434985160828,
        0.0561181902885437
      ],
      "type": "VEC2"
    },
    {
      "bufferView": 3,
      "componentType": 5123,
      "count": 4404,
      "max": [
        1203
      ],
      "min": [
        0
      ],
      "type": "SCALAR"
    },
    {
      "bufferView": 4,
      "componentType": 5126,
      "count": 688,
      "max": [
        0.7992594242095947,
        0.4390248656272888,
        1.4585750102996826
      ],
      "min": [
        -3.2075304985046387,
        -0.4390248656272888,
        -0.7992594242095947
      ],
      "type": "VEC3"
    },
    {
      "bufferView": 5,
      "componentType": 5126,
      "count": 688,
      "max": [
        1,
        1,
        1
      ],
      "min": [
        -1,
        -1,
        -1
      ],
      "type": "VEC3"
    },
    {
      "bufferView": 6,
      "componentType": 5126,
      "count": 688,
      "max": [
        0.9988690614700317,
        0.9988695383071899
      ],
      "min": [
        0.0011240094900131226,
        0.14150363206863403
      ],
      "type": "VEC2"
    },
    {
      "bufferView": 7,
      "componentType": 5123,
      "count": 2856,
      "max": [
        687
      ],
      "min": [
        0
      ],
      "type": "SCALAR"
    }
  ],
  "materials": [
    {
      "pbrMetallicRoughness": {
        "baseColorFactor": [
          0.5376929640769958,
          0.11167184263467789,
          0.13673853874206543,
          1
        ],
        "metallicFactor": 0.18400000035762787,
        "roughnessFactor": 0.4519999623298645
      },
      "doubleSided": true,
      "name": "glasses_base.001"
    },
    {
      "pbrMetallicRoughness": {
        "baseColorFactor": [
          0.800000011920929,
          0.800000011920929,
          0.800000011920929,
          0.07200002670288086
        ],
        "metallicFactor": 0,
        "roughnessFactor": 1
      },
      "doubleSided": true,
      "name": "glasses_mirror.001",
      "extensions": {
        "KHR_materials_transmission": {
          "transmissionFactor": 1
        },
        "KHR_materials_volume": {
          "thicknessFactor": 0,
          "attenuationDistance": null,
          "attenuationColor": [
            1,
            1,
            1
          ]
        },
        "KHR_materials_ior": {
          "ior": 1.399999976158142
        }
      }
    }
  ],
  "meshes": [
    {
      "primitives": [
        {
          "mode": 4,
          "attributes": {
            "POSITION": 0,
            "NORMAL": 1,
            "TEXCOORD_0": 2
          },
          "indices": 3,
          "material": 0
        }
      ]
    },
    {
      "primitives": [
        {
          "mode": 4,
          "attributes": {
            "POSITION": 4,
            "NORMAL": 5,
            "TEXCOORD_0": 6
          },
          "indices": 7,
          "material": 1
        }
      ]
    }
  ],
  "extensionsUsed": [
    "KHR_materials_transmission",
    "KHR_materials_volume",
    "KHR_materials_ior"
  ]
}